# xmcd CD database file
#
# Track frame offsets:
#	150
#	19361
#	34518
#	49684
#	61417
#	74590
#	88036
#	99424
#	114427
#	129189
#	142588
#	156532
#	170811
#	185715
#	198884
#	217629
#	234776
#	250643
#	262338
#	275866
#	289508
#
# Disc length: 4260 seconds
#
# Revision: 7
# Processed by: cddbd v1.5.2PL0 Copyright (c) Steve Scherf et al.
# Submitted via: CDex 1.51
#
DISCID=2e10a215
DTITLE=Various Artist - City Jazz - Vol. 09-10  { 1940-1941 }
DYEAR=2002
DGENRE=Jazz
TTITLE0=Chocolate Dandies - I Can't Believe That You're In Love With Me  [1940]
TTITLE1=Duke Ellington - Dusk  [1940]
TTITLE2=Erskine Hawkins - After Hours  [1940]
TTITLE3=Leadbelly and Golden Gate Quartet - Rock Island  [1940]
TTITLE4=Cab Calloway - I Don't Stand A Ghost Of A Chance With You  [1940]
TTITLE5=Lionel Hampton - Blue Because Of You  [1940]
TTITLE6=Art Tatum - Saint-Louis Blues  [1940]
TTITLE7=Duke Ellington - In A Mellotone  [1940]
TTITLE8=Duke Ellington - Warm Valley  [1940]
TTITLE9=Sidney Bechet Trio - Blues In Thirds  [1940]
TTITLE10=Duke Ellington and Jimmy Blanton - Mr JB Blues  [1940]
TTITLE11=Duke Ellington and Jimmy Blanton - Pitter Panther Patter  [1940]
TTITLE12=Django Reinhardt - Nuages  [1940]
TTITLE13=Duke Ellington - Take The A Train  [1941]
TTITLE14=Edmond Hall - Profoundly Blue  [1941]
TTITLE15=Nat King Cole - Fudge Wudge  [1941]
TTITLE16=Duke Ellington - John Hardy's Wife  [1941]
TTITLE17=Cab Calloway - Jonah Joins The Cab  [1941]
TTITLE18=Billie Holiday - All Of Me  [1941]
TTITLE19=Jay Mc Shann - Dexter Blues  [1941]
TTITLE20=Charlie Christian - Swing To Bop  [1941]
EXTD=May 1940 to May 1941 YEAR: 2002
EXTT0=(with Coleman Hawkins)
EXTT1=
EXTT2=
EXTT3=
EXTT4=(with Dizzy Gillespie)
EXTT5=(with Nat King Cole)
EXTT6=
EXTT7=
EXTT8=
EXTT9=
EXTT10=
EXTT11=
EXTT12=
EXTT13=
EXTT14=
EXTT15=
EXTT16=
EXTT17=
EXTT18=(with Lester Young)
EXTT19=(with Charlie Parker)
EXTT20=
PLAYORDER=
